<svg width="4121" height="1288" viewBox="0 0 4121 1288" fill="none" xmlns="http://www.w3.org/2000/svg">
<mask id="path-1-outside-1_61_2" maskUnits="userSpaceOnUse" x="1628" y="352" width="2434" height="601" fill="black">
<rect fill="white" x="1628" y="352" width="2434" height="601"/>
<path d="M1709 561V773C1709 812.333 1716 838.667 1730 852C1744 865.333 1772.33 872 1815 872H1854V943H1811C1741.67 943 1694 931 1668 907C1642 883 1629 839.333 1629 776V353H1709V491H1854V561H1709ZM2371.97 943H2291.97V744C2291.97 688 2277.64 643.333 2248.97 610C2220.97 576 2182.97 559 2134.97 559C2091.64 559 2054.97 574.333 2024.97 605C1994.97 635.667 1979.97 673 1979.97 717C1979.97 761 1994.97 798 2024.97 828C2054.97 858 2092.3 873 2136.97 873C2176.97 873 2217.64 854.667 2258.97 818V903C2237.64 921 2216.97 933.667 2196.97 941C2176.97 948.333 2153.64 952 2126.97 952C2062.97 952 2008.64 929.333 1963.97 884C1919.3 838.667 1896.97 783 1896.97 717C1896.97 651.667 1919.97 596 1965.97 550C2012.64 503.333 2069.3 480 2135.97 480C2203.97 480 2260.3 503.333 2304.97 550C2349.64 596.667 2371.97 656 2371.97 728V943ZM2538.1 561V773C2538.1 812.333 2545.1 838.667 2559.1 852C2573.1 865.333 2601.43 872 2644.1 872H2683.1V943H2640.1C2570.77 943 2523.1 931 2497.1 907C2471.1 883 2458.1 839.333 2458.1 776V353H2538.1V491H2683.1V561H2538.1ZM3201.07 943H3121.07V744C3121.07 688 3106.74 643.333 3078.07 610C3050.07 576 3012.07 559 2964.07 559C2920.74 559 2884.07 574.333 2854.07 605C2824.07 635.667 2809.07 673 2809.07 717C2809.07 761 2824.07 798 2854.07 828C2884.07 858 2921.4 873 2966.07 873C3006.07 873 3046.74 854.667 3088.07 818V903C3066.74 921 3046.07 933.667 3026.07 941C3006.07 948.333 2982.74 952 2956.07 952C2892.07 952 2837.74 929.333 2793.07 884C2748.4 838.667 2726.07 783 2726.07 717C2726.07 651.667 2749.07 596 2795.07 550C2841.74 503.333 2898.4 480 2965.07 480C3033.07 480 3089.4 503.333 3134.07 550C3178.74 596.667 3201.07 656 3201.07 728V943ZM3388.2 943H3308.2V489H3388.2V569C3419.54 509 3468.87 479 3536.2 479L3566.2 481V556H3550.2C3494.2 556 3453.2 570.667 3427.2 600C3401.2 629.333 3388.2 675.333 3388.2 738V943ZM4060.45 943H3980.45V744C3980.45 688 3966.11 643.333 3937.45 610C3909.45 576 3871.45 559 3823.45 559C3780.11 559 3743.45 574.333 3713.45 605C3683.45 635.667 3668.45 673 3668.45 717C3668.45 761 3683.45 798 3713.45 828C3743.45 858 3780.78 873 3825.45 873C3865.45 873 3906.11 854.667 3947.45 818V903C3926.11 921 3905.45 933.667 3885.45 941C3865.45 948.333 3842.11 952 3815.45 952C3751.45 952 3697.11 929.333 3652.45 884C3607.78 838.667 3585.45 783 3585.45 717C3585.45 651.667 3608.45 596 3654.45 550C3701.11 503.333 3757.78 480 3824.45 480C3892.45 480 3948.78 503.333 3993.45 550C4038.11 596.667 4060.45 656 4060.45 728V943Z"/>
</mask>
<path d="M1709 561V773C1709 812.333 1716 838.667 1730 852C1744 865.333 1772.33 872 1815 872H1854V943H1811C1741.67 943 1694 931 1668 907C1642 883 1629 839.333 1629 776V353H1709V491H1854V561H1709ZM2371.97 943H2291.97V744C2291.97 688 2277.64 643.333 2248.97 610C2220.97 576 2182.97 559 2134.97 559C2091.64 559 2054.97 574.333 2024.97 605C1994.97 635.667 1979.97 673 1979.97 717C1979.97 761 1994.97 798 2024.97 828C2054.97 858 2092.3 873 2136.97 873C2176.97 873 2217.64 854.667 2258.97 818V903C2237.64 921 2216.97 933.667 2196.97 941C2176.97 948.333 2153.64 952 2126.97 952C2062.97 952 2008.64 929.333 1963.97 884C1919.3 838.667 1896.97 783 1896.97 717C1896.97 651.667 1919.97 596 1965.97 550C2012.64 503.333 2069.3 480 2135.97 480C2203.97 480 2260.3 503.333 2304.97 550C2349.64 596.667 2371.97 656 2371.97 728V943ZM2538.1 561V773C2538.1 812.333 2545.1 838.667 2559.1 852C2573.1 865.333 2601.43 872 2644.1 872H2683.1V943H2640.1C2570.77 943 2523.1 931 2497.1 907C2471.1 883 2458.1 839.333 2458.1 776V353H2538.1V491H2683.1V561H2538.1ZM3201.07 943H3121.07V744C3121.07 688 3106.74 643.333 3078.07 610C3050.07 576 3012.07 559 2964.07 559C2920.74 559 2884.07 574.333 2854.07 605C2824.07 635.667 2809.07 673 2809.07 717C2809.07 761 2824.07 798 2854.07 828C2884.07 858 2921.4 873 2966.07 873C3006.07 873 3046.74 854.667 3088.07 818V903C3066.74 921 3046.07 933.667 3026.07 941C3006.07 948.333 2982.74 952 2956.07 952C2892.07 952 2837.74 929.333 2793.07 884C2748.4 838.667 2726.07 783 2726.07 717C2726.07 651.667 2749.07 596 2795.07 550C2841.74 503.333 2898.4 480 2965.07 480C3033.07 480 3089.4 503.333 3134.07 550C3178.74 596.667 3201.07 656 3201.07 728V943ZM3388.2 943H3308.2V489H3388.2V569C3419.54 509 3468.87 479 3536.2 479L3566.2 481V556H3550.2C3494.2 556 3453.2 570.667 3427.2 600C3401.2 629.333 3388.2 675.333 3388.2 738V943ZM4060.45 943H3980.45V744C3980.45 688 3966.11 643.333 3937.45 610C3909.45 576 3871.45 559 3823.45 559C3780.11 559 3743.45 574.333 3713.45 605C3683.45 635.667 3668.45 673 3668.45 717C3668.45 761 3683.45 798 3713.45 828C3743.45 858 3780.78 873 3825.45 873C3865.45 873 3906.11 854.667 3947.45 818V903C3926.11 921 3905.45 933.667 3885.45 941C3865.45 948.333 3842.11 952 3815.45 952C3751.45 952 3697.11 929.333 3652.45 884C3607.78 838.667 3585.45 783 3585.45 717C3585.45 651.667 3608.45 596 3654.45 550C3701.11 503.333 3757.78 480 3824.45 480C3892.45 480 3948.78 503.333 3993.45 550C4038.11 596.667 4060.45 656 4060.45 728V943Z" fill="white"/>
<path d="M1709 561V560H1708V561H1709ZM1854 872H1855V871H1854V872ZM1854 943V944H1855V943H1854ZM1668 907L1667.32 907.735L1667.32 907.735L1668 907ZM1629 353V352H1628V353H1629ZM1709 353H1710V352H1709V353ZM1709 491H1708V492H1709V491ZM1854 491H1855V490H1854V491ZM1854 561V562H1855V561H1854ZM1708 561V773H1710V561H1708ZM1708 773C1708 812.362 1714.99 839.082 1729.31 852.724L1730.69 851.276C1717.01 838.251 1710 812.305 1710 773H1708ZM1729.31 852.724C1736.49 859.56 1747.26 864.618 1761.52 867.973C1775.79 871.331 1793.62 873 1815 873V871C1793.71 871 1776.04 869.336 1761.98 866.027C1747.9 862.715 1737.51 857.773 1730.69 851.276L1729.31 852.724ZM1815 873H1854V871H1815V873ZM1853 872V943H1855V872H1853ZM1854 942H1811V944H1854V942ZM1811 942C1741.71 942 1694.38 929.992 1668.68 906.265L1667.32 907.735C1693.62 932.008 1741.62 944 1811 944V942ZM1668.68 906.265C1643 882.559 1630 839.259 1630 776H1628C1628 839.408 1641 883.441 1667.32 907.735L1668.68 906.265ZM1630 776V353H1628V776H1630ZM1629 354H1709V352H1629V354ZM1708 353V491H1710V353H1708ZM1709 492H1854V490H1709V492ZM1853 491V561H1855V491H1853ZM1854 560H1709V562H1854V560ZM2371.97 943V944H2372.97V943H2371.97ZM2291.97 943H2290.97V944H2291.97V943ZM2248.97 610L2248.2 610.636L2248.2 610.644L2248.21 610.652L2248.97 610ZM2024.97 605L2024.25 604.301L2024.25 604.301L2024.97 605ZM2258.97 818H2259.97V815.776L2258.31 817.252L2258.97 818ZM2258.97 903L2259.61 903.764L2259.97 903.465V903H2258.97ZM2196.97 941L2196.62 940.061L2196.97 941ZM1963.97 884L1964.68 883.298L1964.68 883.298L1963.97 884ZM1965.97 550L1966.68 550.707L1966.68 550.707L1965.97 550ZM2304.97 550L2304.25 550.691L2304.25 550.691L2304.97 550ZM2371.97 942H2291.97V944H2371.97V942ZM2292.97 943V744H2290.97V943H2292.97ZM2292.97 744C2292.97 687.828 2278.59 642.908 2249.73 609.348L2248.21 610.652C2276.68 643.759 2290.97 688.172 2290.97 744H2292.97ZM2249.74 609.364C2221.53 575.111 2183.24 558 2134.97 558V560C2182.7 560 2220.41 576.889 2248.2 610.636L2249.74 609.364ZM2134.97 558C2091.37 558 2054.44 573.44 2024.25 604.301L2025.68 605.699C2055.49 575.227 2091.9 560 2134.97 560V558ZM2024.25 604.301C1994.07 635.159 1978.97 672.746 1978.97 717H1980.97C1980.97 673.254 1995.87 636.174 2025.68 605.699L2024.25 604.301ZM1978.97 717C1978.97 761.254 1994.07 798.512 2024.26 828.707L2025.68 827.293C1995.87 797.488 1980.97 760.746 1980.97 717H1978.97ZM2024.26 828.707C2054.46 858.905 2092.05 874 2136.97 874V872C2092.55 872 2055.48 857.095 2025.68 827.293L2024.26 828.707ZM2136.97 874C2177.29 874 2218.19 855.515 2259.63 818.748L2258.31 817.252C2217.08 853.818 2176.64 872 2136.97 872V874ZM2257.97 818V903H2259.97V818H2257.97ZM2258.32 902.236C2237.05 920.182 2216.49 932.778 2196.62 940.061L2197.31 941.939C2217.45 934.555 2238.22 921.818 2259.61 903.764L2258.32 902.236ZM2196.62 940.061C2176.76 947.345 2153.55 951 2126.97 951V953C2153.72 953 2177.18 949.321 2197.31 941.939L2196.62 940.061ZM2126.97 951C2063.23 951 2009.16 928.44 1964.68 883.298L1963.26 884.702C2008.11 930.227 2062.7 953 2126.97 953V951ZM1964.68 883.298C1920.21 838.159 1897.97 782.748 1897.97 717H1895.97C1895.97 783.252 1918.4 839.174 1963.26 884.702L1964.68 883.298ZM1897.97 717C1897.97 651.931 1920.86 596.519 1966.68 550.707L1965.26 549.293C1919.07 595.481 1895.97 651.403 1895.97 717H1897.97ZM1966.68 550.707C2013.15 504.23 2069.56 481 2135.97 481V479C2069.04 479 2012.12 502.437 1965.26 549.293L1966.68 550.707ZM2135.97 481C2203.71 481 2259.78 504.233 2304.25 550.691L2305.69 549.309C2260.83 502.433 2204.23 479 2135.97 479V481ZM2304.25 550.691C2348.71 597.15 2370.97 656.226 2370.97 728H2372.97C2372.97 655.774 2350.56 596.183 2305.69 549.309L2304.25 550.691ZM2370.97 728V943H2372.97V728H2370.97ZM2538.1 561V560H2537.1V561H2538.1ZM2683.1 872H2684.1V871H2683.1V872ZM2683.1 943V944H2684.1V943H2683.1ZM2497.1 907L2496.42 907.735L2496.42 907.735L2497.1 907ZM2458.1 353V352H2457.1V353H2458.1ZM2538.1 353H2539.1V352H2538.1V353ZM2538.1 491H2537.1V492H2538.1V491ZM2683.1 491H2684.1V490H2683.1V491ZM2683.1 561V562H2684.1V561H2683.1ZM2537.1 561V773H2539.1V561H2537.1ZM2537.1 773C2537.1 812.362 2544.09 839.082 2558.41 852.724L2559.79 851.276C2546.12 838.251 2539.1 812.305 2539.1 773H2537.1ZM2558.41 852.724C2565.59 859.56 2576.36 864.618 2590.62 867.973C2604.89 871.331 2622.72 873 2644.1 873V871C2622.81 871 2605.15 869.336 2591.08 866.027C2577.01 862.715 2566.61 857.773 2559.79 851.276L2558.41 852.724ZM2644.1 873H2683.1V871H2644.1V873ZM2682.1 872V943H2684.1V872H2682.1ZM2683.1 942H2640.1V944H2683.1V942ZM2640.1 942C2570.81 942 2523.48 929.992 2497.78 906.265L2496.42 907.735C2522.72 932.008 2570.73 944 2640.1 944V942ZM2497.78 906.265C2472.1 882.559 2459.1 839.259 2459.1 776H2457.1C2457.1 839.408 2470.11 883.441 2496.42 907.735L2497.78 906.265ZM2459.1 776V353H2457.1V776H2459.1ZM2458.1 354H2538.1V352H2458.1V354ZM2537.1 353V491H2539.1V353H2537.1ZM2538.1 492H2683.1V490H2538.1V492ZM2682.1 491V561H2684.1V491H2682.1ZM2683.1 560H2538.1V562H2683.1V560ZM3201.07 943V944H3202.07V943H3201.07ZM3121.07 943H3120.07V944H3121.07V943ZM3078.07 610L3077.3 610.636L3077.31 610.644L3077.31 610.652L3078.07 610ZM2854.07 605L2853.36 604.301L2853.36 604.301L2854.07 605ZM3088.07 818H3089.07V815.776L3087.41 817.252L3088.07 818ZM3088.07 903L3088.72 903.764L3089.07 903.465V903H3088.07ZM3026.07 941L3025.73 940.061L3026.07 941ZM2793.07 884L2793.78 883.298L2793.78 883.298L2793.07 884ZM2795.07 550L2795.78 550.707L2795.78 550.707L2795.07 550ZM3134.07 550L3133.35 550.691L3133.35 550.691L3134.07 550ZM3201.07 942H3121.07V944H3201.07V942ZM3122.07 943V744H3120.07V943H3122.07ZM3122.07 744C3122.07 687.828 3107.69 642.908 3078.83 609.348L3077.31 610.652C3105.78 643.759 3120.07 688.172 3120.07 744H3122.07ZM3078.84 609.364C3050.63 575.111 3012.34 558 2964.07 558V560C3011.8 560 3049.51 576.889 3077.3 610.636L3078.84 609.364ZM2964.07 558C2920.47 558 2883.55 573.44 2853.36 604.301L2854.79 605.699C2884.59 575.227 2921 560 2964.07 560V558ZM2853.36 604.301C2823.17 635.159 2808.07 672.746 2808.07 717H2810.07C2810.07 673.254 2824.97 636.174 2854.79 605.699L2853.36 604.301ZM2808.07 717C2808.07 761.254 2823.17 798.512 2853.36 828.707L2854.78 827.293C2824.97 797.488 2810.07 760.746 2810.07 717H2808.07ZM2853.36 828.707C2883.56 858.905 2921.15 874 2966.07 874V872C2921.65 872 2884.58 857.095 2854.78 827.293L2853.36 828.707ZM2966.07 874C3006.39 874 3047.29 855.515 3088.73 818.748L3087.41 817.252C3046.19 853.818 3005.75 872 2966.07 872V874ZM3087.07 818V903H3089.07V818H3087.07ZM3087.43 902.236C3066.16 920.182 3045.59 932.778 3025.73 940.061L3026.41 941.939C3046.55 934.555 3067.32 921.818 3088.72 903.764L3087.43 902.236ZM3025.73 940.061C3005.86 947.345 2982.65 951 2956.07 951V953C2982.83 953 3006.28 949.321 3026.41 941.939L3025.73 940.061ZM2956.07 951C2892.34 951 2838.26 928.44 2793.78 883.298L2792.36 884.702C2837.21 930.227 2891.8 953 2956.07 953V951ZM2793.78 883.298C2749.31 838.159 2727.07 782.748 2727.07 717H2725.07C2725.07 783.252 2747.5 839.174 2792.36 884.702L2793.78 883.298ZM2727.07 717C2727.07 651.931 2749.97 596.519 2795.78 550.707L2794.36 549.293C2748.17 595.481 2725.07 651.403 2725.07 717H2727.07ZM2795.78 550.707C2842.25 504.23 2898.67 481 2965.07 481V479C2898.14 479 2841.22 502.437 2794.36 549.293L2795.78 550.707ZM2965.07 481C3032.81 481 3088.88 504.233 3133.35 550.691L3134.79 549.309C3089.93 502.433 3033.33 479 2965.07 479V481ZM3133.35 550.691C3177.82 597.15 3200.07 656.226 3200.07 728H3202.07C3202.07 655.774 3179.66 596.183 3134.79 549.309L3133.35 550.691ZM3200.07 728V943H3202.07V728H3200.07ZM3388.2 943V944H3389.2V943H3388.2ZM3308.2 943H3307.2V944H3308.2V943ZM3308.2 489V488H3307.2V489H3308.2ZM3388.2 489H3389.2V488H3388.2V489ZM3388.2 569H3387.2L3389.09 569.463L3388.2 569ZM3536.2 479L3536.27 478.002L3536.24 478H3536.2V479ZM3566.2 481H3567.2V480.064L3566.27 480.002L3566.2 481ZM3566.2 556V557H3567.2V556H3566.2ZM3388.2 942H3308.2V944H3388.2V942ZM3309.2 943V489H3307.2V943H3309.2ZM3308.2 490H3388.2V488H3308.2V490ZM3387.2 489V569H3389.2V489H3387.2ZM3389.09 569.463C3404.69 539.596 3424.74 517.244 3449.22 502.354C3473.71 487.464 3502.69 480 3536.2 480V478C3502.38 478 3473.03 485.535 3448.18 500.646C3423.34 515.755 3403.05 538.404 3387.32 568.537L3389.09 569.463ZM3536.14 479.998L3566.14 481.998L3566.27 480.002L3536.27 478.002L3536.14 479.998ZM3565.2 481V556H3567.2V481H3565.2ZM3566.2 555H3550.2V557H3566.2V555ZM3550.2 555C3494.04 555 3452.71 569.71 3426.45 599.337L3427.95 600.663C3453.69 571.623 3494.36 557 3550.2 557V555ZM3426.45 599.337C3400.22 628.935 3387.2 675.227 3387.2 738H3389.2C3389.2 675.439 3402.19 629.731 3427.95 600.663L3426.45 599.337ZM3387.2 738V943H3389.2V738H3387.2ZM4060.45 943V944H4061.45V943H4060.45ZM3980.45 943H3979.45V944H3980.45V943ZM3937.45 610L3936.67 610.636L3936.68 610.644L3936.69 610.652L3937.45 610ZM3713.45 605L3712.73 604.301L3712.73 604.301L3713.45 605ZM3947.45 818H3948.45V815.776L3946.78 817.252L3947.45 818ZM3947.45 903L3948.09 903.764L3948.45 903.465V903H3947.45ZM3885.45 941L3885.1 940.061L3885.45 941ZM3652.45 884L3653.16 883.298L3653.16 883.298L3652.45 884ZM3654.45 550L3655.15 550.707L3655.15 550.707L3654.45 550ZM3993.45 550L3992.72 550.691L3992.72 550.691L3993.45 550ZM4060.45 942H3980.45V944H4060.45V942ZM3981.45 943V744H3979.45V943H3981.45ZM3981.45 744C3981.45 687.828 3967.07 642.908 3938.2 609.348L3936.69 610.652C3965.16 643.759 3979.45 688.172 3979.45 744H3981.45ZM3938.22 609.364C3910.01 575.111 3871.71 558 3823.45 558V560C3871.18 560 3908.88 576.889 3936.67 610.636L3938.22 609.364ZM3823.45 558C3779.85 558 3742.92 573.44 3712.73 604.301L3714.16 605.699C3743.97 575.227 3780.38 560 3823.45 560V558ZM3712.73 604.301C3682.54 635.159 3667.45 672.746 3667.45 717H3669.45C3669.45 673.254 3684.35 636.174 3714.16 605.699L3712.73 604.301ZM3667.45 717C3667.45 761.254 3682.54 798.512 3712.74 828.707L3714.15 827.293C3684.35 797.488 3669.45 760.746 3669.45 717H3667.45ZM3712.74 828.707C3742.94 858.905 3780.53 874 3825.45 874V872C3781.03 872 3743.95 857.095 3714.15 827.293L3712.74 828.707ZM3825.45 874C3865.77 874 3906.66 855.515 3948.11 818.748L3946.78 817.252C3905.56 853.818 3865.12 872 3825.45 872V874ZM3946.45 818V903H3948.45V818H3946.45ZM3946.8 902.236C3925.53 920.182 3904.96 932.778 3885.1 940.061L3885.79 941.939C3905.93 934.555 3926.69 921.818 3948.09 903.764L3946.8 902.236ZM3885.1 940.061C3865.24 947.345 3842.02 951 3815.45 951V953C3842.2 953 3865.66 949.321 3885.79 941.939L3885.1 940.061ZM3815.45 951C3751.71 951 3697.64 928.44 3653.16 883.298L3651.73 884.702C3696.59 930.227 3751.18 953 3815.45 953V951ZM3653.16 883.298C3608.68 838.159 3586.45 782.748 3586.45 717H3584.45C3584.45 783.252 3606.87 839.174 3651.73 884.702L3653.16 883.298ZM3586.45 717C3586.45 651.931 3609.34 596.519 3655.15 550.707L3653.74 549.293C3607.55 595.481 3584.45 651.403 3584.45 717H3586.45ZM3655.15 550.707C3701.63 504.23 3758.04 481 3824.45 481V479C3757.52 479 3700.59 502.437 3653.74 549.293L3655.15 550.707ZM3824.45 481C3892.19 481 3948.26 504.233 3992.72 550.691L3994.17 549.309C3949.3 502.433 3892.7 479 3824.45 479V481ZM3992.72 550.691C4037.19 597.15 4059.45 656.226 4059.45 728H4061.45C4061.45 655.774 4039.03 596.183 3994.17 549.309L3992.72 550.691ZM4059.45 728V943H4061.45V728H4059.45Z" fill="black" mask="url(#path-1-outside-1_61_2)"/>
<path fill-rule="evenodd" clip-rule="evenodd" d="M675 0C1047.79 0 1350 286.538 1350 640V1158H0V640C0 286.538 302.208 0 675 0Z" fill="#FE6827"/>
<path fill-rule="evenodd" clip-rule="evenodd" d="M1350 640C1350 286.538 1047.79 0 675 0C302.208 0 0 286.538 0 640V1158H1350V640ZM1122 649.693C1122 416.798 921.871 228 675 228C428.129 228 228 416.798 228 649.693V991H1122V649.693Z" fill="#2E2F36"/>
<path fill-rule="evenodd" clip-rule="evenodd" d="M379 911H963V911.035L1086 1034.04L970.037 1150L905.034 1085H451.039L386.037 1150L263 1026.97L378.966 911L379 911.035V911Z" fill="#2E2F36"/>
<path d="M989.967 687.037L743.146 828.279L925.867 608.815L939.734 597.179C950.013 588.554 984.244 584.795 1002.19 606.187C1020.14 627.579 1015.01 666.02 1004.74 674.645L989.967 687.037Z" fill="#FFD143"/>
<path d="M473.178 690.787L637.4 843.93L426.884 763.124L414.793 755.569C405.831 749.969 390.933 710.902 403.5 690.79C416.067 670.679 451.339 677.14 460.302 682.74L473.178 690.787Z" fill="#FFD143"/>
<path d="M664.777 405.718L694.908 828.266L536.091 433.622L530.002 407.247C525.488 387.696 547.371 350.844 582.798 342.665C618.225 334.486 653.779 358.078 658.292 377.629L664.777 405.718Z" fill="#FFD143"/>
</svg>
