<svg width="4396" height="1438" viewBox="0 0 4396 1438" fill="none" xmlns="http://www.w3.org/2000/svg">
<rect width="4396" height="1438" fill="#FEFFFF"/>
<mask id="path-2-outside-1_40_52" maskUnits="userSpaceOnUse" x="1850" y="480" width="2434" height="601" fill="black">
<rect fill="white" x="1850" y="480" width="2434" height="601"/>
<path d="M1931 689V901C1931 940.333 1938 966.667 1952 980C1966 993.333 1994.33 1000 2037 1000H2076V1071H2033C1963.67 1071 1916 1059 1890 1035C1864 1011 1851 967.333 1851 904V481H1931V619H2076V689H1931ZM2593.97 1071H2513.97V872C2513.97 816 2499.64 771.333 2470.97 738C2442.97 704 2404.97 687 2356.97 687C2313.64 687 2276.97 702.333 2246.97 733C2216.97 763.667 2201.97 801 2201.97 845C2201.97 889 2216.97 926 2246.97 956C2276.97 986 2314.3 1001 2358.97 1001C2398.97 1001 2439.64 982.667 2480.97 946V1031C2459.64 1049 2438.97 1061.67 2418.97 1069C2398.97 1076.33 2375.64 1080 2348.97 1080C2284.97 1080 2230.64 1057.33 2185.97 1012C2141.3 966.667 2118.97 911 2118.97 845C2118.97 779.667 2141.97 724 2187.97 678C2234.64 631.333 2291.3 608 2357.97 608C2425.97 608 2482.3 631.333 2526.97 678C2571.64 724.667 2593.97 784 2593.97 856V1071ZM2760.1 689V901C2760.1 940.333 2767.1 966.667 2781.1 980C2795.1 993.333 2823.43 1000 2866.1 1000H2905.1V1071H2862.1C2792.77 1071 2745.1 1059 2719.1 1035C2693.1 1011 2680.1 967.333 2680.1 904V481H2760.1V619H2905.1V689H2760.1ZM3423.07 1071H3343.07V872C3343.07 816 3328.74 771.333 3300.07 738C3272.07 704 3234.07 687 3186.07 687C3142.74 687 3106.07 702.333 3076.07 733C3046.07 763.667 3031.07 801 3031.07 845C3031.07 889 3046.07 926 3076.07 956C3106.07 986 3143.4 1001 3188.07 1001C3228.07 1001 3268.74 982.667 3310.07 946V1031C3288.74 1049 3268.07 1061.67 3248.07 1069C3228.07 1076.33 3204.74 1080 3178.07 1080C3114.07 1080 3059.74 1057.33 3015.07 1012C2970.4 966.667 2948.07 911 2948.07 845C2948.07 779.667 2971.07 724 3017.07 678C3063.74 631.333 3120.4 608 3187.07 608C3255.07 608 3311.4 631.333 3356.07 678C3400.74 724.667 3423.07 784 3423.07 856V1071ZM3610.2 1071H3530.2V617H3610.2V697C3641.54 637 3690.87 607 3758.2 607L3788.2 609V684H3772.2C3716.2 684 3675.2 698.667 3649.2 728C3623.2 757.333 3610.2 803.333 3610.2 866V1071ZM4282.45 1071H4202.45V872C4202.45 816 4188.11 771.333 4159.45 738C4131.45 704 4093.45 687 4045.45 687C4002.11 687 3965.45 702.333 3935.45 733C3905.45 763.667 3890.45 801 3890.45 845C3890.45 889 3905.45 926 3935.45 956C3965.45 986 4002.78 1001 4047.45 1001C4087.45 1001 4128.11 982.667 4169.45 946V1031C4148.11 1049 4127.45 1061.67 4107.45 1069C4087.45 1076.33 4064.11 1080 4037.45 1080C3973.45 1080 3919.11 1057.33 3874.45 1012C3829.78 966.667 3807.45 911 3807.45 845C3807.45 779.667 3830.45 724 3876.45 678C3923.11 631.333 3979.78 608 4046.45 608C4114.45 608 4170.78 631.333 4215.45 678C4260.11 724.667 4282.45 784 4282.45 856V1071Z"/>
</mask>
<path d="M1931 689V901C1931 940.333 1938 966.667 1952 980C1966 993.333 1994.33 1000 2037 1000H2076V1071H2033C1963.67 1071 1916 1059 1890 1035C1864 1011 1851 967.333 1851 904V481H1931V619H2076V689H1931ZM2593.97 1071H2513.97V872C2513.97 816 2499.64 771.333 2470.97 738C2442.97 704 2404.97 687 2356.97 687C2313.64 687 2276.97 702.333 2246.97 733C2216.97 763.667 2201.97 801 2201.97 845C2201.97 889 2216.97 926 2246.97 956C2276.97 986 2314.3 1001 2358.97 1001C2398.97 1001 2439.64 982.667 2480.97 946V1031C2459.64 1049 2438.97 1061.67 2418.97 1069C2398.97 1076.33 2375.64 1080 2348.97 1080C2284.97 1080 2230.64 1057.33 2185.97 1012C2141.3 966.667 2118.97 911 2118.97 845C2118.97 779.667 2141.97 724 2187.97 678C2234.64 631.333 2291.3 608 2357.97 608C2425.97 608 2482.3 631.333 2526.97 678C2571.64 724.667 2593.97 784 2593.97 856V1071ZM2760.1 689V901C2760.1 940.333 2767.1 966.667 2781.1 980C2795.1 993.333 2823.43 1000 2866.1 1000H2905.1V1071H2862.1C2792.77 1071 2745.1 1059 2719.1 1035C2693.1 1011 2680.1 967.333 2680.1 904V481H2760.1V619H2905.1V689H2760.1ZM3423.07 1071H3343.07V872C3343.07 816 3328.74 771.333 3300.07 738C3272.07 704 3234.07 687 3186.07 687C3142.74 687 3106.07 702.333 3076.07 733C3046.07 763.667 3031.07 801 3031.07 845C3031.07 889 3046.07 926 3076.07 956C3106.07 986 3143.4 1001 3188.07 1001C3228.07 1001 3268.74 982.667 3310.07 946V1031C3288.74 1049 3268.07 1061.67 3248.07 1069C3228.07 1076.33 3204.74 1080 3178.07 1080C3114.07 1080 3059.74 1057.33 3015.07 1012C2970.4 966.667 2948.07 911 2948.07 845C2948.07 779.667 2971.07 724 3017.07 678C3063.74 631.333 3120.4 608 3187.07 608C3255.07 608 3311.4 631.333 3356.07 678C3400.74 724.667 3423.07 784 3423.07 856V1071ZM3610.2 1071H3530.2V617H3610.2V697C3641.54 637 3690.87 607 3758.2 607L3788.2 609V684H3772.2C3716.2 684 3675.2 698.667 3649.2 728C3623.2 757.333 3610.2 803.333 3610.2 866V1071ZM4282.45 1071H4202.45V872C4202.45 816 4188.11 771.333 4159.45 738C4131.45 704 4093.45 687 4045.45 687C4002.11 687 3965.45 702.333 3935.45 733C3905.45 763.667 3890.45 801 3890.45 845C3890.45 889 3905.45 926 3935.45 956C3965.45 986 4002.78 1001 4047.45 1001C4087.45 1001 4128.11 982.667 4169.45 946V1031C4148.11 1049 4127.45 1061.67 4107.45 1069C4087.45 1076.33 4064.11 1080 4037.45 1080C3973.45 1080 3919.11 1057.33 3874.45 1012C3829.78 966.667 3807.45 911 3807.45 845C3807.45 779.667 3830.45 724 3876.45 678C3923.11 631.333 3979.78 608 4046.45 608C4114.45 608 4170.78 631.333 4215.45 678C4260.11 724.667 4282.45 784 4282.45 856V1071Z" fill="black"/>
<path d="M1931 689V688H1930V689H1931ZM2076 1000H2077V999H2076V1000ZM2076 1071V1072H2077V1071H2076ZM1890 1035L1889.32 1035.73H1889.32L1890 1035ZM1851 481V480H1850V481H1851ZM1931 481H1932V480H1931V481ZM1931 619H1930V620H1931V619ZM2076 619H2077V618H2076V619ZM2076 689V690H2077V689H2076ZM1930 689V901H1932V689H1930ZM1930 901C1930 940.362 1936.99 967.082 1951.31 980.724L1952.69 979.276C1939.01 966.251 1932 940.305 1932 901H1930ZM1951.31 980.724C1958.49 987.56 1969.26 992.618 1983.52 995.973C1997.79 999.331 2015.62 1001 2037 1001V999C2015.71 999 1998.04 997.336 1983.98 994.027C1969.9 990.715 1959.51 985.773 1952.69 979.276L1951.31 980.724ZM2037 1001H2076V999H2037V1001ZM2075 1000V1071H2077V1000H2075ZM2076 1070H2033V1072H2076V1070ZM2033 1070C1963.71 1070 1916.38 1057.99 1890.68 1034.27L1889.32 1035.73C1915.62 1060.01 1963.62 1072 2033 1072V1070ZM1890.68 1034.27C1865 1010.56 1852 967.259 1852 904H1850C1850 967.408 1863 1011.44 1889.32 1035.73L1890.68 1034.27ZM1852 904V481H1850V904H1852ZM1851 482H1931V480H1851V482ZM1930 481V619H1932V481H1930ZM1931 620H2076V618H1931V620ZM2075 619V689H2077V619H2075ZM2076 688H1931V690H2076V688ZM2593.97 1071V1072H2594.97V1071H2593.97ZM2513.97 1071H2512.97V1072H2513.97V1071ZM2470.97 738L2470.2 738.636L2470.2 738.644L2470.21 738.652L2470.97 738ZM2246.97 733L2246.25 732.301L2246.97 733ZM2480.97 946H2481.97V943.776L2480.31 945.252L2480.97 946ZM2480.97 1031L2481.61 1031.76L2481.97 1031.46V1031H2480.97ZM2418.97 1069L2418.62 1068.06L2418.97 1069ZM2185.97 1012L2186.68 1011.3L2185.97 1012ZM2187.97 678L2188.68 678.707L2187.97 678ZM2526.97 678L2526.25 678.691L2526.97 678ZM2593.97 1070H2513.97V1072H2593.97V1070ZM2514.97 1071V872H2512.97V1071H2514.97ZM2514.97 872C2514.97 815.828 2500.59 770.908 2471.73 737.348L2470.21 738.652C2498.68 771.759 2512.97 816.172 2512.97 872H2514.97ZM2471.74 737.364C2443.53 703.111 2405.24 686 2356.97 686V688C2404.7 688 2442.41 704.889 2470.2 738.636L2471.74 737.364ZM2356.97 686C2313.37 686 2276.44 701.44 2246.25 732.301L2247.68 733.699C2277.49 703.227 2313.9 688 2356.97 688V686ZM2246.25 732.301C2216.07 763.159 2200.97 800.746 2200.97 845H2202.97C2202.97 801.254 2217.87 764.174 2247.68 733.699L2246.25 732.301ZM2200.97 845C2200.97 889.254 2216.07 926.512 2246.26 956.707L2247.68 955.293C2217.87 925.488 2202.97 888.746 2202.97 845H2200.97ZM2246.26 956.707C2276.46 986.905 2314.05 1002 2358.97 1002V1000C2314.55 1000 2277.48 985.095 2247.68 955.293L2246.26 956.707ZM2358.97 1002C2399.29 1002 2440.19 983.515 2481.63 946.748L2480.31 945.252C2439.08 981.818 2398.64 1000 2358.97 1000V1002ZM2479.97 946V1031H2481.97V946H2479.97ZM2480.32 1030.24C2459.05 1048.18 2438.49 1060.78 2418.62 1068.06L2419.31 1069.94C2439.45 1062.56 2460.22 1049.82 2481.61 1031.76L2480.32 1030.24ZM2418.62 1068.06C2398.76 1075.35 2375.55 1079 2348.97 1079V1081C2375.72 1081 2399.18 1077.32 2419.31 1069.94L2418.62 1068.06ZM2348.97 1079C2285.23 1079 2231.16 1056.44 2186.68 1011.3L2185.26 1012.7C2230.11 1058.23 2284.7 1081 2348.97 1081V1079ZM2186.68 1011.3C2142.21 966.159 2119.97 910.748 2119.97 845H2117.97C2117.97 911.252 2140.4 967.174 2185.26 1012.7L2186.68 1011.3ZM2119.97 845C2119.97 779.931 2142.86 724.519 2188.68 678.707L2187.26 677.293C2141.07 723.481 2117.97 779.403 2117.97 845H2119.97ZM2188.68 678.707C2235.15 632.23 2291.56 609 2357.97 609V607C2291.04 607 2234.12 630.437 2187.26 677.293L2188.68 678.707ZM2357.97 609C2425.71 609 2481.78 632.233 2526.25 678.691L2527.69 677.309C2482.83 630.433 2426.23 607 2357.97 607V609ZM2526.25 678.691C2570.71 725.15 2592.97 784.226 2592.97 856H2594.97C2594.97 783.774 2572.56 724.183 2527.69 677.309L2526.25 678.691ZM2592.97 856V1071H2594.97V856H2592.97ZM2760.1 689V688H2759.1V689H2760.1ZM2905.1 1000H2906.1V999H2905.1V1000ZM2905.1 1071V1072H2906.1V1071H2905.1ZM2719.1 1035L2718.42 1035.73L2719.1 1035ZM2680.1 481V480H2679.1V481H2680.1ZM2760.1 481H2761.1V480H2760.1V481ZM2760.1 619H2759.1V620H2760.1V619ZM2905.1 619H2906.1V618H2905.1V619ZM2905.1 689V690H2906.1V689H2905.1ZM2759.1 689V901H2761.1V689H2759.1ZM2759.1 901C2759.1 940.362 2766.09 967.082 2780.41 980.724L2781.79 979.276C2768.12 966.251 2761.1 940.305 2761.1 901H2759.1ZM2780.41 980.724C2787.59 987.56 2798.36 992.618 2812.62 995.973C2826.89 999.331 2844.72 1001 2866.1 1001V999C2844.81 999 2827.15 997.336 2813.08 994.027C2799.01 990.715 2788.61 985.773 2781.79 979.276L2780.41 980.724ZM2866.1 1001H2905.1V999H2866.1V1001ZM2904.1 1000V1071H2906.1V1000H2904.1ZM2905.1 1070H2862.1V1072H2905.1V1070ZM2862.1 1070C2792.81 1070 2745.48 1057.99 2719.78 1034.27L2718.42 1035.73C2744.72 1060.01 2792.73 1072 2862.1 1072V1070ZM2719.78 1034.27C2694.1 1010.56 2681.1 967.259 2681.1 904H2679.1C2679.1 967.408 2692.11 1011.44 2718.42 1035.73L2719.78 1034.27ZM2681.1 904V481H2679.1V904H2681.1ZM2680.1 482H2760.1V480H2680.1V482ZM2759.1 481V619H2761.1V481H2759.1ZM2760.1 620H2905.1V618H2760.1V620ZM2904.1 619V689H2906.1V619H2904.1ZM2905.1 688H2760.1V690H2905.1V688ZM3423.07 1071V1072H3424.07V1071H3423.07ZM3343.07 1071H3342.07V1072H3343.07V1071ZM3300.07 738L3299.3 738.636L3299.31 738.644L3299.31 738.652L3300.07 738ZM3076.07 733L3075.36 732.301L3076.07 733ZM3310.07 946H3311.07V943.776L3309.41 945.252L3310.07 946ZM3310.07 1031L3310.72 1031.76L3311.07 1031.46V1031H3310.07ZM3248.07 1069L3247.73 1068.06L3248.07 1069ZM3015.07 1012L3015.78 1011.3L3015.07 1012ZM3017.07 678L3017.78 678.707L3017.07 678ZM3356.07 678L3355.35 678.691L3356.07 678ZM3423.07 1070H3343.07V1072H3423.07V1070ZM3344.07 1071V872H3342.07V1071H3344.07ZM3344.07 872C3344.07 815.828 3329.69 770.908 3300.83 737.348L3299.31 738.652C3327.78 771.759 3342.07 816.172 3342.07 872H3344.07ZM3300.84 737.364C3272.63 703.111 3234.34 686 3186.07 686V688C3233.8 688 3271.51 704.889 3299.3 738.636L3300.84 737.364ZM3186.07 686C3142.47 686 3105.55 701.44 3075.36 732.301L3076.79 733.699C3106.59 703.227 3143 688 3186.07 688V686ZM3075.36 732.301C3045.17 763.159 3030.07 800.746 3030.07 845H3032.07C3032.07 801.254 3046.97 764.174 3076.79 733.699L3075.36 732.301ZM3030.07 845C3030.07 889.254 3045.17 926.512 3075.36 956.707L3076.78 955.293C3046.97 925.488 3032.07 888.746 3032.07 845H3030.07ZM3075.36 956.707C3105.56 986.905 3143.15 1002 3188.07 1002V1000C3143.65 1000 3106.58 985.095 3076.78 955.293L3075.36 956.707ZM3188.07 1002C3228.39 1002 3269.29 983.515 3310.73 946.748L3309.41 945.252C3268.19 981.818 3227.75 1000 3188.07 1000V1002ZM3309.07 946V1031H3311.07V946H3309.07ZM3309.43 1030.24C3288.16 1048.18 3267.59 1060.78 3247.73 1068.06L3248.41 1069.94C3268.55 1062.56 3289.32 1049.82 3310.72 1031.76L3309.43 1030.24ZM3247.73 1068.06C3227.86 1075.35 3204.65 1079 3178.07 1079V1081C3204.83 1081 3228.28 1077.32 3248.41 1069.94L3247.73 1068.06ZM3178.07 1079C3114.34 1079 3060.26 1056.44 3015.78 1011.3L3014.36 1012.7C3059.21 1058.23 3113.8 1081 3178.07 1081V1079ZM3015.78 1011.3C2971.31 966.159 2949.07 910.748 2949.07 845H2947.07C2947.07 911.252 2969.5 967.174 3014.36 1012.7L3015.78 1011.3ZM2949.07 845C2949.07 779.931 2971.97 724.519 3017.78 678.707L3016.36 677.293C2970.17 723.481 2947.07 779.403 2947.07 845H2949.07ZM3017.78 678.707C3064.25 632.23 3120.67 609 3187.07 609V607C3120.14 607 3063.22 630.437 3016.36 677.293L3017.78 678.707ZM3187.07 609C3254.81 609 3310.88 632.233 3355.35 678.691L3356.79 677.309C3311.93 630.433 3255.33 607 3187.07 607V609ZM3355.35 678.691C3399.82 725.15 3422.07 784.226 3422.07 856H3424.07C3424.07 783.774 3401.66 724.183 3356.79 677.309L3355.35 678.691ZM3422.07 856V1071H3424.07V856H3422.07ZM3610.2 1071V1072H3611.2V1071H3610.2ZM3530.2 1071H3529.2V1072H3530.2V1071ZM3530.2 617V616H3529.2V617H3530.2ZM3610.2 617H3611.2V616H3610.2V617ZM3610.2 697H3609.2L3611.09 697.463L3610.2 697ZM3758.2 607L3758.27 606.002L3758.24 606H3758.2V607ZM3788.2 609H3789.2V608.064L3788.27 608.002L3788.2 609ZM3788.2 684V685H3789.2V684H3788.2ZM3610.2 1070H3530.2V1072H3610.2V1070ZM3531.2 1071V617H3529.2V1071H3531.2ZM3530.2 618H3610.2V616H3530.2V618ZM3609.2 617V697H3611.2V617H3609.2ZM3611.09 697.463C3626.69 667.596 3646.74 645.245 3671.22 630.354C3695.71 615.464 3724.69 608 3758.2 608V606C3724.38 606 3695.03 613.535 3670.18 628.646C3645.34 643.755 3625.05 666.404 3609.32 696.537L3611.09 697.463ZM3758.14 607.998L3788.14 609.998L3788.27 608.002L3758.27 606.002L3758.14 607.998ZM3787.2 609V684H3789.2V609H3787.2ZM3788.2 683H3772.2V685H3788.2V683ZM3772.2 683C3716.04 683 3674.71 697.71 3648.45 727.337L3649.95 728.663C3675.69 699.623 3716.36 685 3772.2 685V683ZM3648.45 727.337C3622.22 756.935 3609.2 803.227 3609.2 866H3611.2C3611.2 803.439 3624.19 757.731 3649.95 728.663L3648.45 727.337ZM3609.2 866V1071H3611.2V866H3609.2ZM4282.45 1071V1072H4283.45V1071H4282.45ZM4202.45 1071H4201.45V1072H4202.45V1071ZM4159.45 738L4158.67 738.636L4158.68 738.644L4158.69 738.652L4159.45 738ZM3935.45 733L3934.73 732.301L3935.45 733ZM4169.45 946H4170.45V943.776L4168.78 945.252L4169.45 946ZM4169.45 1031L4170.09 1031.76L4170.45 1031.46V1031H4169.45ZM4107.45 1069L4107.1 1068.06L4107.45 1069ZM3874.45 1012L3875.16 1011.3L3874.45 1012ZM3876.45 678L3877.15 678.707L3876.45 678ZM4215.45 678L4214.72 678.691L4215.45 678ZM4282.45 1070H4202.45V1072H4282.45V1070ZM4203.45 1071V872H4201.45V1071H4203.45ZM4203.45 872C4203.45 815.828 4189.07 770.908 4160.2 737.348L4158.69 738.652C4187.16 771.759 4201.45 816.172 4201.45 872H4203.45ZM4160.22 737.364C4132.01 703.111 4093.71 686 4045.45 686V688C4093.18 688 4130.88 704.889 4158.67 738.636L4160.22 737.364ZM4045.45 686C4001.85 686 3964.92 701.44 3934.73 732.301L3936.16 733.699C3965.97 703.227 4002.38 688 4045.45 688V686ZM3934.73 732.301C3904.54 763.159 3889.45 800.746 3889.45 845H3891.45C3891.45 801.254 3906.35 764.174 3936.16 733.699L3934.73 732.301ZM3889.45 845C3889.45 889.254 3904.54 926.512 3934.74 956.707L3936.15 955.293C3906.35 925.488 3891.45 888.746 3891.45 845H3889.45ZM3934.74 956.707C3964.94 986.905 4002.53 1002 4047.45 1002V1000C4003.03 1000 3965.95 985.095 3936.15 955.293L3934.74 956.707ZM4047.45 1002C4087.77 1002 4128.66 983.515 4170.11 946.748L4168.78 945.252C4127.56 981.818 4087.12 1000 4047.45 1000V1002ZM4168.45 946V1031H4170.45V946H4168.45ZM4168.8 1030.24C4147.53 1048.18 4126.96 1060.78 4107.1 1068.06L4107.79 1069.94C4127.93 1062.56 4148.69 1049.82 4170.09 1031.76L4168.8 1030.24ZM4107.1 1068.06C4087.24 1075.35 4064.02 1079 4037.45 1079V1081C4064.2 1081 4087.66 1077.32 4107.79 1069.94L4107.1 1068.06ZM4037.45 1079C3973.71 1079 3919.64 1056.44 3875.16 1011.3L3873.73 1012.7C3918.59 1058.23 3973.18 1081 4037.45 1081V1079ZM3875.16 1011.3C3830.68 966.159 3808.45 910.748 3808.45 845H3806.45C3806.45 911.252 3828.87 967.174 3873.73 1012.7L3875.16 1011.3ZM3808.45 845C3808.45 779.931 3831.34 724.519 3877.15 678.707L3875.74 677.293C3829.55 723.481 3806.45 779.403 3806.45 845H3808.45ZM3877.15 678.707C3923.63 632.23 3980.04 609 4046.45 609V607C3979.52 607 3922.59 630.437 3875.74 677.293L3877.15 678.707ZM4046.45 609C4114.19 609 4170.26 632.233 4214.72 678.691L4216.17 677.309C4171.3 630.433 4114.7 607 4046.45 607V609ZM4214.72 678.691C4259.19 725.15 4281.45 784.226 4281.45 856H4283.45C4283.45 783.774 4261.03 724.183 4216.17 677.309L4214.72 678.691ZM4281.45 856V1071H4283.45V856H4281.45Z" fill="black" mask="url(#path-2-outside-1_40_52)"/>
<path fill-rule="evenodd" clip-rule="evenodd" d="M897 128C1269.79 128 1572 414.538 1572 768V1286H222V768C222 414.538 524.208 128 897 128Z" fill="#FE6827"/>
<path fill-rule="evenodd" clip-rule="evenodd" d="M1572 768C1572 414.538 1269.79 128 897 128C524.208 128 222 414.538 222 768V1286H1572V768ZM1344 777.693C1344 544.798 1143.87 356 897 356C650.129 356 450 544.798 450 777.693V1119H1344V777.693Z" fill="#2E2F36"/>
<path fill-rule="evenodd" clip-rule="evenodd" d="M601 1039H1185V1039.03L1308 1162.04L1192.04 1278L1127.03 1213H673.039L608.037 1278L485 1154.97L600.966 1039L601 1039.03V1039Z" fill="#2E2F36"/>
<path d="M1211.97 815.037L965.146 956.279L1147.87 736.815L1161.73 725.179C1172.01 716.554 1206.24 712.795 1224.19 734.187C1242.14 755.579 1237.01 794.02 1226.74 802.645L1211.97 815.037Z" fill="#FFD143"/>
<path d="M695.178 818.787L859.4 971.93L648.884 891.124L636.793 883.569C627.831 877.969 612.933 838.902 625.5 818.79C638.067 798.679 673.339 805.14 682.302 810.74L695.178 818.787Z" fill="#FFD143"/>
<path d="M886.777 533.718L916.908 956.266L758.091 561.622L752.002 535.247C747.488 515.696 769.371 478.844 804.798 470.665C840.225 462.486 875.779 486.078 880.292 505.629L886.777 533.718Z" fill="#FFD143"/>
</svg>
