<svg width="1350" height="1158" viewBox="0 0 1350 1158" fill="none" xmlns="http://www.w3.org/2000/svg">
<path fill-rule="evenodd" clip-rule="evenodd" d="M675 0C1047.79 0 1350 286.538 1350 640V1158H0V640C0 286.538 302.208 0 675 0Z" fill="#FE6827"/>
<path fill-rule="evenodd" clip-rule="evenodd" d="M1350 640C1350 286.538 1047.79 0 675 0C302.208 0 0 286.538 0 640V1158H1350V640ZM1122 649.693C1122 416.798 921.871 228 675 228C428.129 228 228 416.798 228 649.693V991H1122V649.693Z" fill="#2E2F36"/>
<path fill-rule="evenodd" clip-rule="evenodd" d="M379 911H963V911.035L1086 1034.04L970.037 1150L905.034 1085H451.039L386.037 1150L263 1026.97L378.966 911L379 911.035V911Z" fill="#2E2F36"/>
<path d="M989.967 687.037L743.146 828.279L925.867 608.815L939.734 597.179C950.013 588.554 984.244 584.795 1002.19 606.187C1020.14 627.579 1015.01 666.02 1004.74 674.645L989.967 687.037Z" fill="#FFD143"/>
<path d="M473.18 690.787L637.402 843.93L426.886 763.124L414.795 755.569C405.833 749.969 390.935 710.902 403.502 690.79C416.069 670.679 451.341 677.14 460.304 682.74L473.18 690.787Z" fill="#FFD143"/>
<path d="M664.777 405.718L694.908 828.266L536.091 433.622L530.002 407.247C525.488 387.696 547.371 350.844 582.798 342.665C618.225 334.486 653.779 358.078 658.292 377.629L664.777 405.718Z" fill="#FFD143"/>
</svg>
